<svg width="20" height="19" viewBox="0 0 20 19" fill="none" xmlns="http://www.w3.org/2000/svg">
<path d="M1.25 8.00291H16.075L11.5375 2.55291C11.3253 2.29764 11.2232 1.96854 11.2537 1.638C11.2842 1.30747 11.4447 1.00258 11.7 0.790408C11.9553 0.578235 12.2844 0.476157 12.6149 0.506632C12.9454 0.537107 13.2503 0.697637 13.4625 0.952908L19.7125 8.45291C19.7545 8.51256 19.7922 8.57523 19.825 8.64041C19.825 8.70291 19.825 8.74041 19.9125 8.80291C19.9692 8.94623 19.9988 9.0988 20 9.25291C19.9988 9.40702 19.9692 9.55958 19.9125 9.70291C19.9125 9.76541 19.9125 9.80291 19.825 9.86541C19.7922 9.93058 19.7545 9.99325 19.7125 10.0529L13.4625 17.5529C13.345 17.694 13.1978 17.8075 13.0314 17.8853C12.8651 17.963 12.6836 18.0032 12.5 18.0029C12.2079 18.0035 11.9249 17.9018 11.7 17.7154C11.5734 17.6105 11.4688 17.4816 11.3921 17.3362C11.3154 17.1907 11.2682 17.0316 11.2531 16.8679C11.238 16.7042 11.2553 16.5391 11.3041 16.3821C11.3529 16.2251 11.4322 16.0792 11.5375 15.9529L16.075 10.5029H1.25C0.91848 10.5029 0.600536 10.3712 0.366116 10.1368C0.131695 9.90237 0 9.58443 0 9.25291C0 8.92139 0.131695 8.60345 0.366116 8.36902C0.600536 8.1346 0.91848 8.00291 1.25 8.00291Z" fill="white"/>
</svg>
