<svg width="20" height="19" viewBox="0 0 20 19" fill="none" xmlns="http://www.w3.org/2000/svg">
<path d="M18.75 8.00291H3.925L8.4625 2.55291C8.67467 2.29764 8.77675 1.96854 8.74628 1.638C8.7158 1.30747 8.55527 1.00258 8.3 0.790408C8.04473 0.578235 7.71563 0.476157 7.3851 0.506632C7.05456 0.537107 6.74967 0.697637 6.5375 0.952908L0.2875 8.45291C0.245451 8.51256 0.207849 8.57523 0.175 8.64041C0.175 8.70291 0.175 8.74041 0.0875002 8.80291C0.0308421 8.94623 0.0011764 9.0988 0 9.25291C0.0011764 9.40702 0.0308421 9.55958 0.0875002 9.70291C0.0875002 9.76541 0.0874998 9.80291 0.175 9.86541C0.207849 9.93058 0.245451 9.99325 0.2875 10.0529L6.5375 17.5529C6.65503 17.694 6.8022 17.8075 6.96856 17.8853C7.13491 17.963 7.31636 18.0032 7.5 18.0029C7.79207 18.0035 8.07511 17.9018 8.3 17.7154C8.42657 17.6105 8.5312 17.4816 8.60789 17.3362C8.68458 17.1907 8.73183 17.0316 8.74692 16.8679C8.76202 16.7042 8.74466 16.5391 8.69586 16.3821C8.64705 16.2251 8.56775 16.0792 8.4625 15.9529L3.925 10.5029H18.75C19.0815 10.5029 19.3995 10.3712 19.6339 10.1368C19.8683 9.90237 20 9.58443 20 9.25291C20 8.92139 19.8683 8.60345 19.6339 8.36902C19.3995 8.1346 19.0815 8.00291 18.75 8.00291Z" fill="#F53838"/>
</svg>
