<svg width="60" height="60" viewBox="0 0 60 60" fill="none" xmlns="http://www.w3.org/2000/svg">
<path d="M45.7587 32.0222L44.3839 30.7472L45.7587 32.0222ZM28.081 14.3446L29.356 15.7193L28.081 14.3446ZM54.1521 10.6808L56.0113 10.924L54.1521 10.6808ZM49.4224 5.95116L49.6656 7.81032L49.4224 5.95116ZM16.2357 31.6265L17.9193 32.4519L16.2357 31.6265ZM28.4767 43.8675L27.6514 42.1839L28.4767 43.8675ZM20.5681 25.393C19.8358 24.6608 18.6487 24.6608 17.9164 25.393C17.1842 26.1253 17.1842 27.3124 17.9164 28.0447L20.5681 25.393ZM32.0586 42.1868C32.7908 42.919 33.978 42.919 34.7102 42.1868C35.4424 41.4546 35.4424 40.2674 34.7102 39.5352L32.0586 42.1868ZM16.1487 46.6062C16.8809 45.874 16.8809 44.6868 16.1487 43.9546C15.4164 43.2223 14.2292 43.2223 13.497 43.9546L16.1487 46.6062ZM6.42593 51.0256C5.6937 51.7579 5.6937 52.9451 6.42593 53.6773C7.15817 54.4095 8.34535 54.4095 9.07758 53.6773L6.42593 51.0256ZM10.8454 41.3029C11.5776 40.5707 11.5776 39.3835 10.8454 38.6513C10.1131 37.919 8.92594 37.919 8.1937 38.6513L10.8454 41.3029ZM4.65817 42.1868C3.92593 42.919 3.92593 44.1062 4.65817 44.8385C5.3904 45.5707 6.57758 45.5707 7.30982 44.8385L4.65817 42.1868ZM21.452 51.9095C22.1842 51.1773 22.1842 49.9901 21.452 49.2579C20.7197 48.5256 19.5325 48.5256 18.8003 49.2579L21.452 51.9095ZM15.2648 52.7934C14.5325 53.5256 14.5325 54.7128 15.2648 55.4451C15.997 56.1773 17.1842 56.1773 17.9164 55.4451L15.2648 52.7934ZM26.4901 52.705L28.3462 52.4399L26.4901 52.705ZM39.3948 44.043L41.2509 43.7778L39.3948 44.043ZM7.39816 33.6132L7.66332 31.757L7.66332 31.757L7.39816 33.6132ZM16.0602 20.7085L15.795 22.5646L15.795 22.5646L16.0602 20.7085ZM24.3754 41.5749L18.5283 35.7278L15.8766 38.3795L21.7238 44.2266L24.3754 41.5749ZM44.3839 30.7472C39.6498 35.8516 31.9631 40.0701 27.6514 42.1839L29.3021 45.5511C33.6526 43.4182 41.8918 38.9488 47.1334 33.2973L44.3839 30.7472ZM17.9193 32.4519C20.0331 28.1401 24.2517 20.4534 29.356 15.7193L26.806 12.9698C21.1544 18.2115 16.685 26.4506 14.5522 30.8011L17.9193 32.4519ZM52.2929 10.4376C51.5333 16.246 49.515 25.2149 44.3839 30.7472L47.1334 33.2973C53.1222 26.8402 55.2399 16.8215 56.0113 10.924L52.2929 10.4376ZM29.356 15.7193C34.8883 10.5883 43.8572 8.56998 49.6656 7.81032L49.1793 4.09199C43.2818 4.86331 33.2631 6.98107 26.806 12.9698L29.356 15.7193ZM56.0113 10.924C56.5389 6.88927 53.214 3.5643 49.1793 4.09199L49.6656 7.81032C51.258 7.60206 52.5012 8.84524 52.2929 10.4376L56.0113 10.924ZM18.5283 35.7278C17.6204 34.8199 17.3985 33.5142 17.9193 32.4519L14.5522 30.8011C13.2817 33.3927 13.9072 36.41 15.8766 38.3795L18.5283 35.7278ZM21.7238 44.2266C23.6933 46.1961 26.7106 46.8216 29.3021 45.5511L27.6514 42.1839C26.589 42.7047 25.2834 42.4829 24.3754 41.5749L21.7238 44.2266ZM17.9164 28.0447L32.0586 42.1868L34.7102 39.5352L20.5681 25.393L17.9164 28.0447ZM13.497 43.9546L6.42593 51.0256L9.07758 53.6773L16.1487 46.6062L13.497 43.9546ZM8.1937 38.6513L4.65817 42.1868L7.30982 44.8385L10.8454 41.3029L8.1937 38.6513ZM18.8003 49.2579L15.2648 52.7934L17.9164 55.4451L21.452 51.9095L18.8003 49.2579ZM32.9424 17.4381C30.2576 20.1229 30.2576 24.4759 32.9424 27.1608L35.5941 24.5091C34.3737 23.2887 34.3737 21.3101 35.5941 20.0897L32.9424 17.4381ZM32.9424 27.1608C35.6273 29.8456 39.9803 29.8456 42.6652 27.1608L40.0135 24.5091C38.7931 25.7295 36.8145 25.7295 35.5941 24.5091L32.9424 27.1608ZM42.6652 27.1608C45.35 24.4759 45.35 20.1229 42.6652 17.4381L40.0135 20.0897C41.2339 21.3101 41.2339 23.2888 40.0135 24.5091L42.6652 27.1608ZM42.6652 17.4381C39.9803 14.7532 35.6273 14.7532 32.9424 17.4381L35.5941 20.0897C36.8145 18.8693 38.7931 18.8693 40.0135 20.0897L42.6652 17.4381ZM37.3619 44.8385L29.4069 52.7934L32.0586 55.4451L40.0135 47.4901L37.3619 44.8385ZM28.3462 52.4399L27.2856 45.0152L23.5733 45.5456L24.6339 52.9702L28.3462 52.4399ZM36.8315 39.3584L37.5386 44.3081L41.2509 43.7778L40.5438 38.8281L36.8315 39.3584ZM29.4069 52.7934C29.0427 53.1576 28.4191 52.9497 28.3462 52.4399L24.6339 52.9702C25.1438 56.5391 29.5093 57.9943 32.0586 55.4451L29.4069 52.7934ZM40.0135 47.4901C40.9872 46.5164 41.4457 45.141 41.2509 43.7778L37.5386 44.3081C37.5665 44.5029 37.501 44.6994 37.3619 44.8385L40.0135 47.4901ZM12.6131 20.0898L4.65811 28.0447L7.30976 30.6964L15.2647 22.7414L12.6131 20.0898ZM7.13299 35.4693L14.5576 36.53L15.0879 32.8177L7.66332 31.757L7.13299 35.4693ZM21.2751 19.5594L16.3254 18.8523L15.795 22.5646L20.7448 23.2718L21.2751 19.5594ZM4.65811 28.0447C2.10885 30.594 3.56403 34.9595 7.13299 35.4693L7.66332 31.757C7.15347 31.6842 6.94559 31.0606 7.30976 30.6964L4.65811 28.0447ZM15.2647 22.7414C15.4038 22.6023 15.6003 22.5368 15.795 22.5646L16.3254 18.8523C14.9622 18.6576 13.5868 19.116 12.6131 20.0898L15.2647 22.7414Z" fill="#4F77FF"/>
</svg>
