<svg width="32" height="32" viewBox="0 0 32 32" fill="none" xmlns="http://www.w3.org/2000/svg">
<path d="M25.868 21.2C25.95 20.88 26 20.546 26 20.2V11.2C26 8.99395 24.206 7.19995 22 7.19995H10C7.794 7.19995 6 8.99395 6 11.2V20.2C6 20.546 6.048 20.88 6.132 21.2H25.868ZM9.2 11.2C9.2 10.758 9.558 10.4 10 10.4H22C22.442 10.4 22.8 10.758 22.8 11.2V20.2C22.8 20.642 22.442 21 22 21H10C9.558 21 9.2 20.642 9.2 20.2V11.2Z" fill="#886CFF"/>
<path d="M26.7999 20.6001H4.9999C4.11625 20.6001 3.3999 21.3164 3.3999 22.2001C3.3999 23.0838 4.11625 23.8001 4.9999 23.8001H26.7999C27.6836 23.8001 28.3999 23.0838 28.3999 22.2001C28.3999 21.3164 27.6836 20.6001 26.7999 20.6001Z" fill="#FFC0EC"/>
</svg>
