<svg width="60" height="60" viewBox="0 0 60 60" fill="none" xmlns="http://www.w3.org/2000/svg">
<path d="M44.2972 23.8182L49.6104 26.6924L50.7227 27.3173C53.0924 28.6487 53.0924 32.0812 50.7227 33.4126L35.6311 41.8915C32.1311 43.858 27.8689 43.858 24.3689 41.8915L9.27731 33.4126C6.90756 32.0812 6.90756 28.6487 9.27732 27.3173L10.3896 26.6924L15.4084 23.8182M45.4527 36.6152L50.2823 39.0463C52.773 40.3001 52.853 43.8494 50.4213 45.2156L35.6311 53.5252C32.1311 55.4916 27.8689 55.4916 24.3689 53.5252L9.7945 45.3368C7.32099 43.9471 7.45728 40.3194 10.028 39.1218L15.4084 36.6152M35.6311 29.5279L50.7227 21.049C53.0924 19.7176 53.0924 16.2851 50.7227 14.9537L35.6311 6.47482C32.1311 4.50839 27.8689 4.50839 24.3689 6.47482L9.27732 14.9537C6.90757 16.2851 6.90756 19.7176 9.27731 21.049L24.3689 29.5279C27.8689 31.4944 32.1311 31.4944 35.6311 29.5279Z" stroke="#4F77FF" stroke-width="3.75"/>
</svg>
