<svg width="48" height="43" viewBox="0 0 48 43" fill="none" xmlns="http://www.w3.org/2000/svg">
<path d="M42.8571 0.142822H37.7143V6.99999C37.7143 7.9468 36.9468 8.71431 36 8.71431C35.0532 8.71431 34.2857 7.9468 34.2857 6.99999V0.142822H13.7142V6.99999C13.7142 7.9468 12.9467 8.71431 11.9999 8.71431C11.0531 8.71431 10.2856 7.9468 10.2856 6.99999V0.142822H5.14285C2.30253 0.142822 0 2.44535 0 5.28568V37.8571C0 40.6974 2.30253 43 5.14285 43H42.8571C45.6975 43 48 40.6974 48 37.8571V5.28568C48 2.44535 45.6975 0.142822 42.8571 0.142822ZM44.5714 37.8571C44.5714 38.8039 43.8039 39.5714 42.857 39.5714H5.14285C4.19605 39.5714 3.42854 38.8039 3.42854 37.8571V15.5714H44.5714V37.8571Z" fill="#F5F5FC"/>
</svg>
