<svg width="111" height="30" viewBox="0 0 111 30" fill="none" xmlns="http://www.w3.org/2000/svg">
<path fill-rule="evenodd" clip-rule="evenodd" d="M10.3963 1.26498C8.82886 1.26616 7.56031 2.55265 7.56147 4.13791C7.56031 5.72317 8.83002 7.00966 10.3975 7.01084H13.2334V4.13908C13.2346 2.55382 11.9649 1.26733 10.3963 1.26498C10.3975 1.26498 10.3975 1.26498 10.3963 1.26498ZM10.3963 8.92768H2.83599C1.26855 8.92885 -0.00115532 10.2153 3.16601e-06 11.8006C-0.00231381 13.3859 1.26739 14.6724 2.83483 14.6747H10.3963C11.9637 14.6735 13.2334 13.387 13.2323 11.8018C13.2334 10.2153 11.9637 8.92885 10.3963 8.92768Z" fill="#C4C4C4"/>
<path fill-rule="evenodd" clip-rule="evenodd" d="M28.3552 11.8005C28.3563 10.2153 27.0866 8.92879 25.5192 8.92762C23.9517 8.92879 22.682 10.2153 22.6832 11.8005V14.6746H25.5192C27.0866 14.6735 28.3563 13.387 28.3552 11.8005ZM20.7937 11.8005V4.13785C20.7949 2.55376 19.5263 1.26727 17.9589 1.26493C16.3914 1.2661 15.1217 2.55259 15.1229 4.13785V11.8005C15.1206 13.3858 16.3903 14.6723 17.9577 14.6746C19.5252 14.6735 20.7949 13.387 20.7937 11.8005Z" fill="#C4C4C4"/>
<path fill-rule="evenodd" clip-rule="evenodd" d="M17.9577 29.9999C19.5251 29.9988 20.7948 28.7123 20.7937 27.127C20.7948 25.5417 19.5251 24.2553 17.9577 24.2541H15.1217V27.127C15.1205 28.7111 16.3902 29.9976 17.9577 29.9999ZM17.9577 22.3361H25.5192C27.0866 22.3349 28.3563 21.0484 28.3551 19.4631C28.3575 17.8779 27.0878 16.5914 25.5203 16.589H17.9588C16.3914 16.5902 15.1217 17.8767 15.1229 19.462C15.1217 21.0484 16.3902 22.3349 17.9577 22.3361Z" fill="#C4C4C4"/>
<path fill-rule="evenodd" clip-rule="evenodd" d="M0.000266277 19.4632C-0.000892213 21.0485 1.26881 22.335 2.83625 22.3361C4.40369 22.335 5.67339 21.0485 5.67223 19.4632V16.5903H2.83625C1.26881 16.5914 -0.000892213 17.8779 0.000266277 19.4632ZM7.56173 19.4632V27.1259C7.55942 28.7112 8.82912 29.9977 10.3966 30C11.964 29.9988 13.2337 28.7123 13.2325 27.1271V19.4655C13.2349 17.8803 11.9652 16.5938 10.3977 16.5914C8.82912 16.5914 7.56057 17.8779 7.56173 19.4632Z" fill="#C4C4C4"/>
<path d="M36.6849 20.8631L39.3728 19.2767C40.5543 21.0327 42.0902 21.9107 43.9806 21.9107C44.906 21.9107 45.6346 21.7311 46.1663 21.372C46.7176 20.9928 46.9933 20.4939 46.9933 19.8753C46.9933 19.3764 46.7669 18.9374 46.314 18.5583C45.8808 18.1791 45.418 17.8998 44.9257 17.7202C44.4335 17.5206 43.695 17.2612 42.7105 16.9419C42.5332 16.8821 42.4052 16.8421 42.3265 16.8222C41.6176 16.5827 41.017 16.3532 40.5247 16.1337C40.0521 15.8943 39.55 15.585 39.0183 15.2058C38.4867 14.8067 38.083 14.3178 37.8073 13.7391C37.5316 13.1405 37.3938 12.452 37.3938 11.6738C37.3938 10.1572 38.0239 8.9399 39.2842 8.02197C40.5444 7.10403 42.1099 6.64506 43.9806 6.64506C45.3786 6.64506 46.698 7.02421 47.9385 7.78251C49.1791 8.52085 50.1046 9.46872 50.715 10.6261L48.2339 12.1527C47.0721 10.5363 45.6642 9.72813 44.0101 9.72813C43.1043 9.72813 42.4052 9.91771 41.913 10.2969C41.4404 10.656 41.2041 11.135 41.2041 11.7336C41.2041 12.2325 41.4108 12.6815 41.8244 13.0806C42.2576 13.4597 42.7006 13.7391 43.1535 13.9187C43.6064 14.0983 44.2464 14.3278 45.0734 14.6072C45.29 14.667 45.4476 14.7169 45.546 14.7568C49.0511 15.8943 50.8036 17.6104 50.8036 19.9053C50.8036 21.3221 50.2129 22.5294 49.0314 23.5271C47.8696 24.5049 46.2155 24.9938 44.0692 24.9938C42.4151 24.9938 40.9382 24.6246 39.6386 23.8863C38.3587 23.148 37.3741 22.1402 36.6849 20.8631Z" fill="#C4C4C4"/>
<path d="M54.0527 24.455V0H57.7743V24.455H54.0527Z" fill="#C4C4C4"/>
<path d="M64.9223 19.6059C64.9223 20.2445 65.1684 20.7833 65.6607 21.2223C66.1727 21.6414 66.8422 21.8509 67.6692 21.8509C68.8507 21.8509 69.855 21.4518 70.682 20.6536C71.5287 19.8554 71.9521 18.8077 71.9521 17.5106V15.9242C71.0463 16.1437 69.9534 16.3532 68.6735 16.5528C66.1727 16.9519 64.9223 17.9696 64.9223 19.6059ZM61.1415 19.9352C61.1415 16.6825 63.5242 14.697 68.2895 13.9786C70.0223 13.7192 71.2432 13.4797 71.9521 13.2602V12.3323C71.9521 11.4942 71.6567 10.8356 71.066 10.3567C70.4752 9.8778 69.6876 9.63833 68.703 9.63833C66.8323 9.63833 65.2177 10.4166 63.8589 11.9731L61.5846 9.99753C62.4707 8.9399 63.5242 8.12174 64.7451 7.54304C65.9856 6.94439 67.2852 6.64506 68.6439 6.64506C71.1841 6.64506 72.9957 7.27365 74.0788 8.53082C75.1618 9.76804 75.7033 11.5041 75.7033 13.7391V24.455H72.0702V22.2999C71.7158 23.0382 71.0955 23.6768 70.2094 24.2156C69.343 24.7344 68.319 24.9938 67.1376 24.9938C65.2669 24.9938 63.7999 24.5249 62.7365 23.587C61.6732 22.6491 61.1415 21.4318 61.1415 19.9352Z" fill="#C4C4C4"/>
<path d="M78.5684 15.8344C78.5684 13.0606 79.297 10.8356 80.7541 9.15941C82.231 7.48318 84.1312 6.64506 86.4548 6.64506C88.1482 6.64506 89.5758 7.1639 90.7376 8.20156C91.8994 9.23923 92.628 10.4266 92.9234 11.7636L89.7334 12.6615C89.4971 11.9032 89.0934 11.2547 88.5223 10.7159C87.9513 10.1572 87.2719 9.8778 86.4843 9.8778C85.2044 9.8778 84.2001 10.4465 83.4715 11.584C82.7626 12.7214 82.4082 14.1382 82.4082 15.8344C82.4082 17.7102 82.7922 19.1669 83.5601 20.2046C84.3281 21.2422 85.3028 21.7611 86.4843 21.7611C87.3507 21.7611 88.1088 21.4618 88.7586 20.8631C89.4281 20.2445 89.8909 19.5461 90.1469 18.7678L93.3369 19.6957C92.9627 21.0926 92.1456 22.3298 90.8853 23.4074C89.6251 24.465 88.1482 24.9938 86.4548 24.9938C84.1312 24.9938 82.231 24.1657 80.7541 22.5094C79.297 20.8332 78.5684 18.6082 78.5684 15.8344Z" fill="#C4C4C4"/>
<path d="M96.1429 24.455V0H99.8646V14.0684L105.92 7.18385H110.616L104.325 14.218L111 24.455H106.629L101.903 16.8821L99.8646 19.1569V24.455H96.1429Z" fill="#C4C4C4"/>
</svg>
