<svg width="25" height="25" viewBox="0 0 25 25" fill="none" xmlns="http://www.w3.org/2000/svg">
<path d="M6.93734 23.4923L5.41884 25L0 19.7577L3.88234 15.9311C4.66858 15.1505 5.66071 14.6059 6.74471 14.3599C7.82871 14.114 8.96061 14.1767 10.0103 14.5408L10.8634 14.8367H16.0972C16.3186 14.8366 16.5377 14.8807 16.7415 14.9663C16.9454 15.0519 17.1299 15.1773 17.284 15.3351C17.4381 15.4928 17.5587 15.6797 17.6386 15.8847C17.7186 16.0896 17.7562 16.3084 17.7493 16.5281C17.7242 16.9623 17.5311 17.37 17.2103 17.6662C16.8895 17.9623 16.4658 18.124 16.0278 18.1173H12.888C12.7177 18.1173 12.5543 18.1845 12.4338 18.3041C12.3134 18.4237 12.2457 18.586 12.2457 18.7551C12.2457 18.9242 12.3134 19.0865 12.4338 19.2061C12.5543 19.3257 12.7177 19.3929 12.888 19.3929H16.0381C16.8065 19.3966 17.5469 19.1068 18.106 18.5835C18.6652 18.0602 19.0002 17.3434 19.0417 16.5816C19.0417 16.5689 19.0417 16.5561 19.0417 16.5408L21.9554 13.2832C22.2514 12.9422 22.6683 12.7275 23.1195 12.6838C23.5707 12.6401 24.0216 12.7707 24.3783 13.0485C24.5549 13.1936 24.7003 13.3724 24.8062 13.5743C24.912 13.7762 24.976 13.997 24.9944 14.2239C25.0129 14.4507 24.9854 14.6789 24.9135 14.895C24.8417 15.1111 24.727 15.3108 24.5762 15.4821L18.7591 22.1148C18.3751 22.5517 17.9012 22.9017 17.3693 23.1411C16.8373 23.3806 16.2599 23.5038 15.6758 23.5026L6.93734 23.4923ZM18.9492 9.07143C18.9492 8.75006 18.8206 8.44185 18.5918 8.2146C18.3629 7.98736 18.0525 7.85969 17.7288 7.85969H15.9302V6.07398C15.9158 5.76256 15.7811 5.46863 15.554 5.25331C15.3269 5.03798 15.025 4.91783 14.711 4.91783C14.397 4.91783 14.0951 5.03798 13.8681 5.25331C13.641 5.46863 13.5063 5.76256 13.4918 6.07398V7.85969H11.6933C11.5285 7.85218 11.3638 7.87792 11.2093 7.93536C11.0548 7.99281 10.9136 8.08075 10.7943 8.1939C10.675 8.30704 10.5801 8.44302 10.5152 8.59363C10.4503 8.74424 10.4168 8.90635 10.4168 9.07015C10.4168 9.23396 10.4503 9.39607 10.5152 9.54668C10.5801 9.69728 10.675 9.83327 10.7943 9.94641C10.9136 10.0596 11.0548 10.1475 11.2093 10.2049C11.3638 10.2624 11.5285 10.2881 11.6933 10.2806H13.4918V12.0663C13.5063 12.3777 13.641 12.6717 13.8681 12.887C14.0951 13.1023 14.397 13.2225 14.711 13.2225C15.025 13.2225 15.3269 13.1023 15.554 12.887C15.7811 12.6717 15.9158 12.3777 15.9302 12.0663V10.2806H17.7288C18.052 10.2806 18.362 10.1533 18.5909 9.92661C18.8197 9.69991 18.9485 9.39236 18.9492 9.07143ZM7.24824 2.35714V3.67347H5.925C5.6865 3.67347 5.45776 3.76754 5.28911 3.93498C5.12047 4.10242 5.02572 4.32953 5.02572 4.56633C5.02572 4.80313 5.12047 5.03023 5.28911 5.19767C5.45776 5.36512 5.6865 5.45918 5.925 5.45918H7.25081V6.77551C7.25081 7.01231 7.34555 7.23941 7.5142 7.40686C7.68285 7.5743 7.91159 7.66837 8.15009 7.66837C8.3886 7.66837 8.61734 7.5743 8.78598 7.40686C8.95463 7.23941 9.04938 7.01231 9.04938 6.77551V5.45408H10.3675C10.606 5.45408 10.8347 5.36001 11.0034 5.19257C11.172 5.02513 11.2668 4.79802 11.2668 4.56122C11.2668 4.32442 11.172 4.09732 11.0034 3.92988C10.8347 3.76244 10.606 3.66837 10.3675 3.66837H9.04167V2.35714C9.04167 2.12034 8.94693 1.89324 8.77828 1.7258C8.60963 1.55835 8.38089 1.46429 8.14239 1.46429C7.90388 1.46429 7.67514 1.55835 7.50649 1.7258C7.33785 1.89324 7.2431 2.12034 7.2431 2.35714H7.24824ZM18.5921 0C18.3876 0 18.1916 0.0806302 18.047 0.224153C17.9025 0.367676 17.8213 0.562334 17.8213 0.765306V1.89796H16.6805C16.476 1.89796 16.28 1.97859 16.1354 2.12211C15.9909 2.26564 15.9096 2.46029 15.9096 2.66327C15.9096 2.86624 15.9909 3.0609 16.1354 3.20442C16.28 3.34794 16.476 3.42857 16.6805 3.42857H17.8213V4.56122C17.8213 4.7642 17.9025 4.95885 18.047 5.10238C18.1916 5.2459 18.3876 5.32653 18.5921 5.32653C18.7965 5.32653 18.9926 5.2459 19.1371 5.10238C19.2817 4.95885 19.3629 4.7642 19.3629 4.56122V3.42857H20.5037C20.6049 3.42857 20.7052 3.40878 20.7987 3.37032C20.8922 3.33186 20.9772 3.27548 21.0488 3.20442C21.1203 3.13335 21.1771 3.04899 21.2158 2.95614C21.2546 2.86328 21.2745 2.76377 21.2745 2.66327C21.2745 2.56276 21.2546 2.46325 21.2158 2.3704C21.1771 2.27754 21.1203 2.19318 21.0488 2.12211C20.9772 2.05105 20.8922 1.99467 20.7987 1.95621C20.7052 1.91775 20.6049 1.89796 20.5037 1.89796H19.3629V0.765306C19.3629 0.562334 19.2817 0.367676 19.1371 0.224153C18.9926 0.0806302 18.7965 0 18.5921 0Z" fill="white"/>
</svg>
