<svg width="27" height="27" viewBox="0 0 27 27" fill="none" xmlns="http://www.w3.org/2000/svg">
<path d="M25.2929 26.7071C25.6834 27.0976 26.3166 27.0976 26.7071 26.7071C27.0976 26.3166 27.0976 25.6834 26.7071 25.2929L25.2929 26.7071ZM26.7071 25.2929L19.3795 17.9653L17.9653 19.3795L25.2929 26.7071L26.7071 25.2929ZM20.6897 11.3448C20.6897 16.5058 16.5058 20.6897 11.3448 20.6897V22.6897C17.6104 22.6897 22.6897 17.6104 22.6897 11.3448H20.6897ZM11.3448 20.6897C6.18382 20.6897 2 16.5058 2 11.3448H0C0 17.6104 5.07925 22.6897 11.3448 22.6897V20.6897ZM2 11.3448C2 6.18382 6.18382 2 11.3448 2V0C5.07925 0 0 5.07925 0 11.3448H2ZM11.3448 2C16.5058 2 20.6897 6.18382 20.6897 11.3448H22.6897C22.6897 5.07925 17.6104 0 11.3448 0V2Z" fill="white"/>
</svg>
