<svg width="210" height="11" viewBox="0 0 210 11" fill="none" xmlns="http://www.w3.org/2000/svg">
<path opacity="0.2" d="M198.545 7C197.716 7 197.045 6.32843 197.045 5.5C197.045 4.67157 197.716 4 198.545 4V7ZM188.724 4C189.553 4 190.224 4.67157 190.224 5.5C190.224 6.32843 189.553 7 188.724 7V4ZM183.814 7C182.986 7 182.314 6.32843 182.314 5.5C182.314 4.67157 182.986 4 183.814 4V7ZM173.994 4C174.822 4 175.494 4.67157 175.494 5.5C175.494 6.32843 174.822 7 173.994 7V4ZM169.083 7C168.255 7 167.583 6.32843 167.583 5.5C167.583 4.67157 168.255 4 169.083 4V7ZM159.263 4C160.091 4 160.763 4.67157 160.763 5.5C160.763 6.32843 160.091 7 159.263 7V4ZM154.353 7C153.524 7 152.853 6.32843 152.853 5.5C152.853 4.67157 153.524 4 154.353 4V7ZM144.532 4C145.36 4 146.032 4.67157 146.032 5.5C146.032 6.32843 145.36 7 144.532 7V4ZM139.622 7C138.793 7 138.122 6.32843 138.122 5.5C138.122 4.67157 138.793 4 139.622 4V7ZM129.801 4C130.63 4 131.301 4.67157 131.301 5.5C131.301 6.32843 130.63 7 129.801 7V4ZM124.891 7C124.063 7 123.391 6.32843 123.391 5.5C123.391 4.67157 124.063 4 124.891 4V7ZM115.071 4C115.899 4 116.571 4.67157 116.571 5.5C116.571 6.32843 115.899 7 115.071 7V4ZM110.16 7C109.332 7 108.66 6.32843 108.66 5.5C108.66 4.67157 109.332 4 110.16 4V7ZM100.34 4C101.168 4 101.84 4.67157 101.84 5.5C101.84 6.32843 101.168 7 100.34 7V4ZM95.4295 7C94.6011 7 93.9295 6.32843 93.9295 5.5C93.9295 4.67157 94.6011 4 95.4295 4V7ZM85.609 4C86.4374 4 87.109 4.67157 87.109 5.5C87.109 6.32843 86.4374 7 85.609 7V4ZM80.6987 7C79.8703 7 79.1987 6.32843 79.1987 5.5C79.1987 4.67157 79.8703 4 80.6987 4V7ZM70.8782 4C71.7066 4 72.3782 4.67157 72.3782 5.5C72.3782 6.32843 71.7066 7 70.8782 7V4ZM65.968 7C65.1395 7 64.468 6.32843 64.468 5.5C64.468 4.67157 65.1395 4 65.968 4V7ZM56.1474 4C56.9759 4 57.6474 4.67157 57.6474 5.5C57.6474 6.32843 56.9759 7 56.1474 7V4ZM51.2372 7C50.4088 7 49.7372 6.32843 49.7372 5.5C49.7372 4.67157 50.4088 4 51.2372 4V7ZM41.4167 4C42.2451 4 42.9167 4.67157 42.9167 5.5C42.9167 6.32843 42.2451 7 41.4167 7V4ZM36.5064 7C35.678 7 35.0064 6.32843 35.0064 5.5C35.0064 4.67157 35.678 4 36.5064 4V7ZM26.6859 4C27.5143 4 28.1859 4.67157 28.1859 5.5C28.1859 6.32843 27.5143 7 26.6859 7V4ZM21.7756 7C20.9472 7 20.2756 6.32843 20.2756 5.5C20.2756 4.67157 20.9472 4 21.7756 4V7ZM11.9551 4C12.7836 4 13.4551 4.67157 13.4551 5.5C13.4551 6.32843 12.7836 7 11.9551 7V4ZM201 7H198.545V4H201V7ZM188.724 7H183.814V4H188.724V7ZM173.994 7H169.083V4H173.994V7ZM159.263 7H154.353V4H159.263V7ZM144.532 7H139.622V4H144.532V7ZM129.801 7H124.891V4H129.801V7ZM115.071 7H110.16V4H115.071V7ZM100.34 7H95.4295V4H100.34V7ZM85.609 7H80.6987V4H85.609V7ZM70.8782 7H65.968V4H70.8782V7ZM56.1474 7H51.2372V4H56.1474V7ZM41.4167 7H36.5064V4H41.4167V7ZM26.6859 7H21.7756V4H26.6859V7ZM11.9551 7H9.5V4H11.9551V7Z" fill="url(#paint0_linear_2_122)"/>
<circle r="5.5" transform="matrix(-1 0 0 1 5.5 5.5)" fill="#4DDFFD"/>
<circle r="5.5" transform="matrix(-1 0 0 1 204.5 5.5)" fill="#9672FF"/>
<defs>
<linearGradient id="paint0_linear_2_122" x1="196" y1="6.99944" x2="4.49999" y2="7.49958" gradientUnits="userSpaceOnUse">
<stop stop-color="#9672FF"/>
<stop offset="1" stop-color="#4DDFFD"/>
</linearGradient>
</defs>
</svg>
