<svg width="22" height="21" viewBox="0 0 22 21" fill="none" xmlns="http://www.w3.org/2000/svg">
<path d="M20.9041 6.22719L18.6685 4.87536V0.283746C18.6685 0.13855 18.5509 0.0211906 18.4059 0.0211906H15.0916C14.9468 0.0211906 14.8293 0.13855 14.8293 0.283746V2.55422L10.6674 0.0380134C10.641 0.022192 10.6119 0.0119782 10.5821 0.00717169C10.5152 -0.00844948 10.4451 0.00256544 10.3862 0.0380134L0.157394 6.22719C0.0788878 6.27446 0.0308228 6.35997 0.0308228 6.4517V8.61723C0.0308228 8.71135 0.0810908 8.79827 0.162601 8.84494C0.244312 8.8918 0.344648 8.8914 0.425757 8.84393L1.96624 7.94332V18.522H1.23325C1.08825 18.522 0.970895 18.6394 0.970895 18.7846V20.7376C0.970895 20.8826 1.08825 21.0002 1.23325 21.0002H19.8282C19.9732 21.0002 20.0908 20.8826 20.0908 20.7376V18.7846C20.0908 18.6394 19.9732 18.522 19.8282 18.522H19.0952V7.94392L20.6359 8.84393C20.6768 8.86777 20.7224 8.87978 20.7683 8.87978C20.8134 8.87978 20.8584 8.86817 20.8989 8.84494C20.9806 8.79827 21.0307 8.71135 21.0307 8.61723V6.4517C21.0307 6.35997 20.9826 6.27446 20.9041 6.22719ZM15.3542 0.546101H18.1433V4.55793L15.3542 2.87165V0.546101ZM19.5657 20.4751H1.49581V19.0469H19.5657V20.4751ZM12.8932 18.522H8.16824V10.3233H12.8932V18.522ZM18.5703 18.522H13.4183V10.0608C13.4183 9.91558 13.3008 9.79823 13.1558 9.79823H7.90568C7.76089 9.79823 7.64333 9.91558 7.64333 10.0608V18.522H2.49115V7.6363L10.5268 2.93794L18.5703 7.6371V18.522ZM20.5057 8.16001L10.6592 2.40722C10.6184 2.38339 10.5725 2.37137 10.5268 2.37137C10.481 2.37137 10.4353 2.38339 10.3943 2.40722L0.555733 8.15961V6.5995L10.5268 0.566729L20.5057 6.5995V8.16001Z" fill="#31353B"/>
</svg>
