<svg width="210" height="11" viewBox="0 0 210 11" fill="none" xmlns="http://www.w3.org/2000/svg">
<path opacity="0.2" d="M11.4551 7C12.2836 7 12.9551 6.32843 12.9551 5.5C12.9551 4.67157 12.2836 4 11.4551 4V7ZM21.2756 4C20.4472 4 19.7756 4.67157 19.7756 5.5C19.7756 6.32843 20.4472 7 21.2756 7V4ZM26.1859 7C27.0143 7 27.6859 6.32843 27.6859 5.5C27.6859 4.67157 27.0143 4 26.1859 4V7ZM36.0064 4C35.178 4 34.5064 4.67157 34.5064 5.5C34.5064 6.32843 35.178 7 36.0064 7V4ZM40.9167 7C41.7451 7 42.4167 6.32843 42.4167 5.5C42.4167 4.67157 41.7451 4 40.9167 4V7ZM50.7372 4C49.9088 4 49.2372 4.67157 49.2372 5.5C49.2372 6.32843 49.9088 7 50.7372 7V4ZM55.6474 7C56.4759 7 57.1474 6.32843 57.1474 5.5C57.1474 4.67157 56.4759 4 55.6474 4V7ZM65.468 4C64.6395 4 63.968 4.67157 63.968 5.5C63.968 6.32843 64.6395 7 65.468 7V4ZM70.3782 7C71.2066 7 71.8782 6.32843 71.8782 5.5C71.8782 4.67157 71.2066 4 70.3782 4V7ZM80.1987 4C79.3703 4 78.6987 4.67157 78.6987 5.5C78.6987 6.32843 79.3703 7 80.1987 7V4ZM85.109 7C85.9374 7 86.609 6.32843 86.609 5.5C86.609 4.67157 85.9374 4 85.109 4V7ZM94.9295 4C94.1011 4 93.4295 4.67157 93.4295 5.5C93.4295 6.32843 94.1011 7 94.9295 7V4ZM99.8397 7C100.668 7 101.34 6.32843 101.34 5.5C101.34 4.67157 100.668 4 99.8397 4V7ZM109.66 4C108.832 4 108.16 4.67157 108.16 5.5C108.16 6.32843 108.832 7 109.66 7V4ZM114.571 7C115.399 7 116.071 6.32843 116.071 5.5C116.071 4.67157 115.399 4 114.571 4V7ZM124.391 4C123.563 4 122.891 4.67157 122.891 5.5C122.891 6.32843 123.563 7 124.391 7V4ZM129.301 7C130.13 7 130.801 6.32843 130.801 5.5C130.801 4.67157 130.13 4 129.301 4V7ZM139.122 4C138.293 4 137.622 4.67157 137.622 5.5C137.622 6.32843 138.293 7 139.122 7V4ZM144.032 7C144.86 7 145.532 6.32843 145.532 5.5C145.532 4.67157 144.86 4 144.032 4V7ZM153.853 4C153.024 4 152.353 4.67157 152.353 5.5C152.353 6.32843 153.024 7 153.853 7V4ZM158.763 7C159.591 7 160.263 6.32843 160.263 5.5C160.263 4.67157 159.591 4 158.763 4V7ZM168.583 4C167.755 4 167.083 4.67157 167.083 5.5C167.083 6.32843 167.755 7 168.583 7V4ZM173.494 7C174.322 7 174.994 6.32843 174.994 5.5C174.994 4.67157 174.322 4 173.494 4V7ZM183.314 4C182.486 4 181.814 4.67157 181.814 5.5C181.814 6.32843 182.486 7 183.314 7V4ZM188.224 7C189.053 7 189.724 6.32843 189.724 5.5C189.724 4.67157 189.053 4 188.224 4V7ZM198.045 4C197.216 4 196.545 4.67157 196.545 5.5C196.545 6.32843 197.216 7 198.045 7V4ZM9 7H11.4551V4H9V7ZM21.2756 7H26.1859V4H21.2756V7ZM36.0064 7H40.9167V4H36.0064V7ZM50.7372 7H55.6474V4H50.7372V7ZM65.468 7H70.3782V4H65.468V7ZM80.1987 7H85.109V4H80.1987V7ZM94.9295 7H99.8397V4H94.9295V7ZM109.66 7H114.571V4H109.66V7ZM124.391 7H129.301V4H124.391V7ZM139.122 7H144.032V4H139.122V7ZM153.853 7H158.763V4H153.853V7ZM168.583 7H173.494V4H168.583V7ZM183.314 7H188.224V4H183.314V7ZM198.045 7H200.5V4H198.045V7Z" fill="url(#paint0_linear_2_118)"/>
<circle cx="204.5" cy="5.5" r="5.5" fill="#4DDFFD"/>
<circle cx="5.5" cy="5.5" r="5.5" fill="#9672FF"/>
<defs>
<linearGradient id="paint0_linear_2_118" x1="14" y1="6.99944" x2="205.5" y2="7.49958" gradientUnits="userSpaceOnUse">
<stop stop-color="#9672FF"/>
<stop offset="1" stop-color="#4DDFFD"/>
</linearGradient>
</defs>
</svg>
