<svg width="21" height="25" viewBox="0 0 21 25" fill="none" xmlns="http://www.w3.org/2000/svg">
<path d="M16.4786 25V4.99394H0V25H3.8383V23.8131C3.8383 22.3207 5.00866 21.1043 6.4259 21.1043H10.0524C11.4715 21.1043 12.6499 22.3207 12.6499 23.8131V25H16.4786ZM4.55 17.8478C4.55 17.954 4.53091 18.0644 4.49243 18.1624C4.45396 18.2604 4.40009 18.351 4.32898 18.4263C4.25787 18.5013 4.17199 18.5581 4.07871 18.5987C3.98575 18.6393 3.8814 18.6594 3.78043 18.6594H1.9624C1.86174 18.6594 1.75739 18.6393 1.66412 18.5987C1.57115 18.5581 1.48527 18.5013 1.41416 18.4263C1.34274 18.3513 1.28918 18.2608 1.2507 18.1624C1.21222 18.0644 1.19283 17.9543 1.19283 17.8478V15.9506C1.19283 15.8445 1.21192 15.7344 1.2507 15.636C1.28918 15.538 1.34305 15.4474 1.41416 15.3721C1.48527 15.2971 1.57115 15.2403 1.66412 15.1997C1.75739 15.1591 1.86174 15.1387 1.9624 15.1387H3.78043C3.88109 15.1387 3.98544 15.1588 4.07871 15.1997C4.17168 15.2403 4.25756 15.2971 4.32898 15.3721C4.40009 15.4474 4.45396 15.5377 4.49243 15.636C4.53091 15.7341 4.55 15.8441 4.55 15.9506V17.8478ZM4.55 12.2374C4.55 12.3435 4.53091 12.4536 4.49243 12.5519C4.45396 12.65 4.40009 12.7406 4.32898 12.8155C4.25787 12.8909 4.17199 12.9473 4.07871 12.9879C3.98575 13.0285 3.8814 13.049 3.78043 13.049H1.9624C1.86174 13.049 1.75739 13.0288 1.66412 12.9879C1.57115 12.9473 1.48527 12.8905 1.41416 12.8155C1.34274 12.7406 1.28918 12.65 1.2507 12.5519C1.21222 12.4539 1.19283 12.3435 1.19283 12.2374V10.3301C1.19283 10.2239 1.21192 10.1239 1.2507 10.0256C1.28918 9.92753 1.34305 9.83695 1.41416 9.76164C1.48527 9.68664 1.57115 9.61977 1.66412 9.57886C1.75739 9.53828 1.86174 9.51783 1.9624 9.51783H3.78043C3.88109 9.51783 3.98544 9.53796 4.07871 9.57886C4.17168 9.61944 4.25756 9.68632 4.32898 9.76164C4.40009 9.83663 4.45396 9.9272 4.49243 10.0256C4.53091 10.1236 4.55 10.2236 4.55 10.3301V12.2374ZM6.56073 10.2389C6.56073 10.1327 6.57981 10.0226 6.6186 9.92428C6.65708 9.82624 6.71095 9.73566 6.78206 9.66035C6.85347 9.58535 6.93905 9.52854 7.03232 9.48796C7.12528 9.44738 7.22994 9.42725 7.3306 9.42725H8.95624C9.0569 9.42725 9.16125 9.44738 9.25453 9.48796C9.34749 9.52854 9.43337 9.58535 9.50479 9.66035C9.5759 9.73534 9.62977 9.82591 9.66825 9.92428C9.70672 10.0223 9.72612 10.1324 9.72612 10.2389V11.9432C9.72612 12.0494 9.70703 12.1494 9.66825 12.2474C9.62977 12.3455 9.5759 12.436 9.50479 12.5114C9.43368 12.5863 9.3478 12.6532 9.25453 12.6938C9.16156 12.7344 9.0569 12.7548 8.95624 12.7548H7.3306C7.22994 12.7548 7.12528 12.7347 7.03232 12.6938C6.93935 12.6532 6.85347 12.5863 6.78206 12.5114C6.71095 12.4364 6.65708 12.3458 6.6186 12.2474C6.58012 12.1494 6.56073 12.0494 6.56073 11.9432V10.2389ZM9.77352 17.6043C9.77352 17.7105 9.75444 17.8105 9.71565 17.9088C9.67717 18.0069 9.6233 18.0975 9.55219 18.1725C9.48109 18.2478 9.3952 18.3143 9.30224 18.3552C9.20897 18.3958 9.10461 18.4159 9.00395 18.4159H7.32999C7.22933 18.4159 7.12467 18.3958 7.0317 18.3552C6.93874 18.3147 6.85285 18.2478 6.78144 18.1725C6.71033 18.0975 6.65646 18.0069 6.61798 17.9088C6.5795 17.8108 6.56011 17.7108 6.56011 17.6043V15.8493C6.56011 15.7432 6.5792 15.6331 6.61798 15.5347C6.65646 15.4367 6.71033 15.3461 6.78144 15.2711C6.85285 15.1961 6.93843 15.1393 7.0317 15.0987C7.12467 15.0582 7.22933 15.0377 7.32999 15.0377H9.00395C9.10461 15.0377 9.20897 15.0578 9.30224 15.0987C9.3952 15.1393 9.48109 15.1961 9.55219 15.2711C9.62361 15.3461 9.67717 15.4367 9.71565 15.5347C9.75413 15.6331 9.77352 15.7432 9.77352 15.8493V17.6043ZM11.9283 10.3301C11.9283 10.2239 11.9474 10.1239 11.9862 10.0256C12.0247 9.92753 12.0785 9.83695 12.1496 9.76164C12.2208 9.68664 12.3066 9.61977 12.3996 9.57886C12.4929 9.53828 12.5972 9.51783 12.6979 9.51783H14.5159C14.6166 9.51783 14.7209 9.53796 14.8142 9.57886C14.9072 9.61944 14.993 9.68632 15.0645 9.76164C15.1356 9.83663 15.1894 9.9272 15.2279 10.0256C15.2664 10.1236 15.2855 10.2236 15.2855 10.3301V12.2374C15.2855 12.3435 15.2664 12.4536 15.2279 12.5519C15.1894 12.65 15.1356 12.7406 15.0645 12.8155C14.9934 12.8909 14.9075 12.9473 14.8142 12.9879C14.7212 13.0285 14.6166 13.049 14.5159 13.049H12.6979C12.5972 13.049 12.4929 13.0288 12.3996 12.9879C12.3066 12.9473 12.2208 12.8905 12.1496 12.8155C12.0782 12.7406 12.0247 12.65 11.9862 12.5519C11.9477 12.4539 11.9283 12.3435 11.9283 12.2374V10.3301ZM12.3999 18.5984C12.3069 18.5578 12.2211 18.501 12.15 18.426C12.0785 18.351 12.025 18.2604 11.9865 18.1621C11.948 18.064 11.9286 17.954 11.9286 17.8475V15.9506C11.9286 15.8445 11.9477 15.7344 11.9865 15.636C12.025 15.538 12.0788 15.4474 12.15 15.3721C12.2211 15.2971 12.3069 15.2403 12.3999 15.1997C12.4932 15.1591 12.5975 15.1387 12.6982 15.1387H14.5162C14.6169 15.1387 14.7212 15.1588 14.8145 15.1997C14.9075 15.2403 14.9934 15.2971 15.0648 15.3721C15.1359 15.4474 15.1897 15.5377 15.2282 15.636C15.2667 15.7341 15.2858 15.8441 15.2858 15.9506V17.8478C15.2858 17.954 15.2667 18.0644 15.2282 18.1624C15.1897 18.2604 15.1359 18.351 15.0648 18.4263C14.9937 18.5013 14.9078 18.5581 14.8145 18.5987C14.7215 18.6393 14.6169 18.6594 14.5162 18.6594H12.6979C12.5972 18.6594 12.4929 18.639 12.3999 18.5984Z" fill="white"/>
<path d="M19.9528 0H4.08148L1.02967 3.36978H16.8902L19.9528 0Z" fill="white"/>
<path d="M18.0172 23.7846L21 20.4907V1.19371L18.0172 4.47584V23.7846Z" fill="white"/>
<path d="M6.42435 22.7239C5.84071 22.7239 5.37466 23.2164 5.37466 23.8147V24.9974H11.1064V23.8147C11.1064 23.2164 10.6416 22.7239 10.0536 22.7239H6.42435Z" fill="white"/>
</svg>
