<svg width="110" height="32" viewBox="0 0 110 32" fill="none" xmlns="http://www.w3.org/2000/svg">
<path d="M16.918 7.65506C16.36 6.58039 15.585 5.77439 14.593 5.23706C13.601 4.67906 12.454 4.40006 11.152 4.40006C9.726 4.40006 8.455 4.72039 7.339 5.36106C6.223 6.00172 5.34467 6.91106 4.704 8.08906C4.084 9.26706 3.774 10.6311 3.774 12.1811C3.774 13.7311 4.084 15.1054 4.704 16.3041C5.34467 17.4821 6.223 18.3914 7.339 19.0321C8.455 19.6727 9.726 19.9931 11.152 19.9931C13.074 19.9931 14.6343 19.4557 15.833 18.3811C17.0317 17.3064 17.7653 15.8494 18.034 14.0101H9.943V11.1891H21.816V13.9481C21.5887 15.6221 20.9893 17.1617 20.018 18.5671C19.0673 19.9724 17.817 21.0987 16.267 21.9461C14.7377 22.7727 13.0327 23.1861 11.152 23.1861C9.12667 23.1861 7.277 22.7211 5.603 21.7911C3.929 20.8404 2.596 19.5281 1.604 17.8541C0.63267 16.1801 0.147003 14.2891 0.147003 12.1811C0.147003 10.0731 0.63267 8.18206 1.604 6.50806C2.596 4.83406 3.929 3.53206 5.603 2.60206C7.29767 1.65139 9.14734 1.17606 11.152 1.17606C13.446 1.17606 15.4817 1.74439 17.259 2.88106C19.057 3.99706 20.359 5.58839 21.165 7.65506H16.918Z" fill="#6A7C92"/>
<path d="M32.7106 23.2791C31.0986 23.2791 29.6416 22.9174 28.3396 22.1941C27.0376 21.4501 26.0146 20.4167 25.2706 19.0941C24.5266 17.7507 24.1546 16.2007 24.1546 14.4441C24.1546 12.7081 24.5369 11.1684 25.3016 9.82506C26.0662 8.48173 27.1099 7.44839 28.4326 6.72506C29.7552 6.00173 31.2329 5.64006 32.8656 5.64006C34.4982 5.64006 35.9759 6.00173 37.2986 6.72506C38.6212 7.44839 39.6649 8.48173 40.4296 9.82506C41.1942 11.1684 41.5766 12.7081 41.5766 14.4441C41.5766 16.1801 41.1839 17.7197 40.3986 19.0631C39.6132 20.4064 38.5386 21.4501 37.1746 22.1941C35.8312 22.9174 34.3432 23.2791 32.7106 23.2791ZM32.7106 20.2101C33.6199 20.2101 34.4672 19.9931 35.2526 19.5591C36.0586 19.1251 36.7096 18.4741 37.2056 17.6061C37.7016 16.7381 37.9496 15.6841 37.9496 14.4441C37.9496 13.2041 37.7119 12.1604 37.2366 11.3131C36.7612 10.4451 36.1309 9.79406 35.3456 9.36006C34.5602 8.92606 33.7129 8.70906 32.8036 8.70906C31.8942 8.70906 31.0469 8.92606 30.2616 9.36006C29.4969 9.79406 28.8872 10.4451 28.4326 11.3131C27.9779 12.1604 27.7506 13.2041 27.7506 14.4441C27.7506 16.2834 28.2156 17.7094 29.1456 18.7221C30.0962 19.7141 31.2846 20.2101 32.7106 20.2101Z" fill="#6A7C92"/>
<path d="M52.4791 23.2791C50.8671 23.2791 49.4101 22.9174 48.1081 22.1941C46.8061 21.4501 45.7831 20.4167 45.0391 19.0941C44.2951 17.7507 43.9231 16.2007 43.9231 14.4441C43.9231 12.7081 44.3055 11.1684 45.0701 9.82506C45.8348 8.48173 46.8785 7.44839 48.2011 6.72506C49.5238 6.00173 51.0015 5.64006 52.6341 5.64006C54.2668 5.64006 55.7445 6.00173 57.0671 6.72506C58.3898 7.44839 59.4335 8.48173 60.1981 9.82506C60.9628 11.1684 61.3451 12.7081 61.3451 14.4441C61.3451 16.1801 60.9525 17.7197 60.1671 19.0631C59.3818 20.4064 58.3071 21.4501 56.9431 22.1941C55.5998 22.9174 54.1118 23.2791 52.4791 23.2791ZM52.4791 20.2101C53.3885 20.2101 54.2358 19.9931 55.0211 19.5591C55.8271 19.1251 56.4781 18.4741 56.9741 17.6061C57.4701 16.7381 57.7181 15.6841 57.7181 14.4441C57.7181 13.2041 57.4805 12.1604 57.0051 11.3131C56.5298 10.4451 55.8995 9.79406 55.1141 9.36006C54.3288 8.92606 53.4815 8.70906 52.5721 8.70906C51.6628 8.70906 50.8155 8.92606 50.0301 9.36006C49.2655 9.79406 48.6558 10.4451 48.2011 11.3131C47.7465 12.1604 47.5191 13.2041 47.5191 14.4441C47.5191 16.2834 47.9841 17.7094 48.9141 18.7221C49.8648 19.7141 51.0531 20.2101 52.4791 20.2101Z" fill="#6A7C92"/>
<path d="M71.7207 5.64006C73.0433 5.64006 74.211 5.90873 75.2237 6.44606C76.257 6.96273 77.063 7.61373 77.6417 8.39906V5.91906H81.2067V23.2791C81.2067 24.8497 80.876 26.2447 80.2147 27.4641C79.5533 28.7041 78.5923 29.6754 77.3317 30.3781C76.0917 31.0807 74.6037 31.4321 72.8677 31.4321C70.553 31.4321 68.631 30.8844 67.1017 29.7891C65.5723 28.7144 64.7043 27.2471 64.4977 25.3871H68.0007C68.2693 26.2757 68.8377 26.9887 69.7057 27.5261C70.5943 28.0841 71.6483 28.3631 72.8677 28.3631C74.2937 28.3631 75.4407 27.9291 76.3087 27.0611C77.1973 26.1931 77.6417 24.9324 77.6417 23.2791V20.4271C77.0423 21.2331 76.226 21.9151 75.1927 22.4731C74.18 23.0104 73.0227 23.2791 71.7207 23.2791C70.2327 23.2791 68.8687 22.9071 67.6287 22.1631C66.4093 21.3984 65.438 20.3444 64.7147 19.0011C64.012 17.6371 63.6607 16.0974 63.6607 14.3821C63.6607 12.6667 64.012 11.1477 64.7147 9.82506C65.438 8.50239 66.4093 7.47939 67.6287 6.75606C68.8687 6.01206 70.2327 5.64006 71.7207 5.64006ZM77.6417 14.4441C77.6417 13.2661 77.3937 12.2431 76.8977 11.3751C76.4223 10.5071 75.792 9.84573 75.0067 9.39106C74.2213 8.93639 73.374 8.70906 72.4647 8.70906C71.5553 8.70906 70.708 8.93639 69.9227 9.39106C69.1373 9.82506 68.4967 10.4761 68.0007 11.3441C67.5253 12.1914 67.2877 13.2041 67.2877 14.3821C67.2877 15.5601 67.5253 16.5934 68.0007 17.4821C68.4967 18.3707 69.1373 19.0527 69.9227 19.5281C70.7287 19.9827 71.576 20.2101 72.4647 20.2101C73.374 20.2101 74.2213 19.9827 75.0067 19.5281C75.792 19.0734 76.4223 18.4121 76.8977 17.5441C77.3937 16.6554 77.6417 15.6221 77.6417 14.4441Z" fill="#6A7C92"/>
<path d="M89.3824 0.0600586V23.0001H85.8484V0.0600586H89.3824Z" fill="#6A7C92"/>
<path d="M109.677 14.0411C109.677 14.6817 109.636 15.2604 109.553 15.7771H96.5023C96.6056 17.1411 97.1119 18.2364 98.0213 19.0631C98.9306 19.8897 100.047 20.3031 101.369 20.3031C103.271 20.3031 104.614 19.5074 105.399 17.9161H109.212C108.696 19.4867 107.755 20.7784 106.391 21.7911C105.048 22.7831 103.374 23.2791 101.369 23.2791C99.7366 23.2791 98.2693 22.9174 96.9673 22.1941C95.6859 21.4501 94.6733 20.4167 93.9293 19.0941C93.2059 17.7507 92.8443 16.2007 92.8443 14.4441C92.8443 12.6874 93.1956 11.1477 93.8983 9.82506C94.6216 8.48173 95.6239 7.44839 96.9053 6.72506C98.2073 6.00173 99.6953 5.64006 101.369 5.64006C102.981 5.64006 104.418 5.99139 105.678 6.69406C106.939 7.39673 107.921 8.38873 108.623 9.67006C109.326 10.9307 109.677 12.3877 109.677 14.0411ZM105.988 12.9251C105.968 11.6231 105.503 10.5794 104.593 9.79406C103.684 9.00873 102.558 8.61606 101.214 8.61606C99.9949 8.61606 98.9513 9.00873 98.0833 9.79406C97.2153 10.5587 96.6986 11.6024 96.5333 12.9251H105.988Z" fill="#6A7C92"/>
</svg>
