<svg width="23" height="30" viewBox="0 0 23 30" fill="none" xmlns="http://www.w3.org/2000/svg">
<path d="M16.051 18.1369C16.2192 17.6262 16.5128 17.1507 16.8956 16.7654L22.8465 10.8384V7.03125H16.6707C16.1849 7.03125 15.8203 6.63814 15.8203 6.15234V0H2.63672C1.18277 0 0 1.18277 0 2.63672V27.3633C0 28.8172 1.18277 30 2.63672 30H20.1863C21.6403 30 22.8465 28.8172 22.8465 27.3633V20.8037L21.8806 21.7461C21.4893 22.134 21.0309 22.4164 20.5142 22.5889L17.7196 23.5219L17.2938 23.5451C16.59 23.5451 15.924 23.2027 15.5103 22.6293C15.1 22.0586 14.9885 21.3187 15.2116 20.6501L16.051 18.1369ZM4.39453 15.8203H13.1551C13.6409 15.8203 14.034 16.2134 14.034 16.6992C14.034 17.185 13.6409 17.5781 13.1551 17.5781H4.39453C3.90873 17.5781 3.51562 17.185 3.51562 16.6992C3.51562 16.2134 3.90873 15.8203 4.39453 15.8203ZM3.51562 13.1836C3.51562 12.6978 3.90873 12.3047 4.39453 12.3047H13.1551C13.6409 12.3047 14.034 12.6978 14.034 13.1836C14.034 13.6694 13.6409 14.0625 13.1551 14.0625H4.39453C3.90873 14.0625 3.51562 13.6694 3.51562 13.1836ZM3.51562 20.2148C3.51562 19.729 3.90873 19.3359 4.39453 19.3359H13.1551C13.6409 19.3359 14.034 19.729 14.034 20.2148C14.034 20.7006 13.6409 21.0938 13.1551 21.0938H4.39453C3.90873 21.0938 3.51562 20.7006 3.51562 20.2148ZM16.6707 24.6094C17.1565 24.6094 17.5496 25.0025 17.5496 25.4883C17.5496 25.9741 17.1565 26.3672 16.6707 26.3672H11.3972C10.9114 26.3672 10.5183 25.9741 10.5183 25.4883C10.5183 25.0025 10.9114 24.6094 11.3972 24.6094H16.6707ZM4.39453 10.5469C3.90873 10.5469 3.51562 10.1538 3.51562 9.66797C3.51562 9.18217 3.90873 8.78906 4.39453 8.78906H16.6707C17.1565 8.78906 17.5496 9.18217 17.5496 9.66797C17.5496 10.1538 17.1565 10.5469 16.6707 10.5469H4.39453Z" fill="#5A73E5"/>
</svg>
